<?xml version="1.0" encoding="UTF-8" standalone="no"?>
<!-- Svg Vector Icons : http://www.onlinewebfonts.com/icon -->

<svg
   xmlns:dc="http://purl.org/dc/elements/1.1/"
   xmlns:cc="http://creativecommons.org/ns#"
   xmlns:rdf="http://www.w3.org/1999/02/22-rdf-syntax-ns#"
   xmlns:svg="http://www.w3.org/2000/svg"
   xmlns="http://www.w3.org/2000/svg"
   xmlns:sodipodi="http://sodipodi.sourceforge.net/DTD/sodipodi-0.dtd"
   xmlns:inkscape="http://www.inkscape.org/namespaces/inkscape"
   version="1.1"
   x="0px"
   y="0px"
   viewBox="0 0 1000 1000"
   enable-background="new 0 0 1000 1000"
   xml:space="preserve"
   id="svg26"
   sodipodi:docname="icon.svg"
   inkscape:version="0.92.1 r15371"><defs
     id="defs30" /><sodipodi:namedview
     pagecolor="#ffffff"
     bordercolor="#666666"
     borderopacity="1"
     objecttolerance="10"
     gridtolerance="10"
     guidetolerance="10"
     inkscape:pageopacity="0"
     inkscape:pageshadow="2"
     inkscape:window-width="1920"
     inkscape:window-height="1023"
     id="namedview28"
     showgrid="false"
     inkscape:zoom="0.472"
     inkscape:cx="10.21607"
     inkscape:cy="692.17852"
     inkscape:window-x="0"
     inkscape:window-y="0"
     inkscape:window-maximized="1"
     inkscape:current-layer="svg26" /><metadata
     id="metadata2"> Svg Vector Icons : http://www.onlinewebfonts.com/icon <rdf:RDF><cc:Work
     rdf:about=""><dc:format>image/svg+xml</dc:format><dc:type
       rdf:resource="http://purl.org/dc/dcmitype/StillImage" /><dc:title></dc:title></cc:Work></rdf:RDF></metadata><g
     id="g24"
     transform="rotate(180,500.00646,499.99915)"><g
       transform="matrix(0.1,0,0,-0.1,0,511)"
       id="g22"><path
         d="m 2926.9,4981.1 c -231.7,-61.8 -423.7,-233.9 -509.8,-459 -44.1,-114.7 -44.1,-147.8 -41.9,-3294.7 l 2.2,-3175.6 64,-134.6 c 97.1,-205.2 289.1,-368.5 492.1,-417.1 30.9,-6.6 1476.3,-13.3 3210.9,-15.4 l 3151.3,-2.2 125.8,46.4 c 165.5,64 328.8,218.5 408.3,388.4 l 61.8,132.4 6.6,3144.7 c 4.4,3140.3 4.4,3144.7 -41.9,3296.9 -39.7,132.4 -66.2,172.1 -183.2,291.3 -117,114.7 -161.1,143.4 -286.9,183.2 -150.1,46.3 -161.1,46.3 -3255,44.1 -2385.6,-0.1 -3127.1,-6.7 -3204.3,-28.8 z M 9152.3,1249.5 V -1762.8 H 6140 3127.7 V 1249.5 4261.8 H 6140 9152.3 Z"
         id="path4"
         inkscape:connector-curvature="0" /><path
         d="m 5632.4,3478.3 c -300.1,-108.1 -333.2,-518.6 -55.2,-681.9 72.8,-44.1 117,-46.3 792.2,-53 l 715,-6.6 -1193.8,-1196 C 5067.5,715.4 4685.7,318.2 4661.4,263 c -46.3,-114.7 -41.9,-216.3 17.7,-326.6 90.5,-169.9 291.3,-240.5 474.5,-165.5 55.2,24.3 452.4,406.1 1277.7,1229.2 L 7627.4,2194 7634,1479 c 6.6,-675.3 8.8,-719.4 52.9,-792.2 53,-92.7 163.3,-169.9 267,-189.8 176.5,-33.1 377.4,97.1 425.9,273.6 15.5,66.2 22.1,448 17.7,1279.9 l -6.6,1185 -50.8,81.7 c -28.7,44.1 -88.3,103.7 -132.4,132.4 l -81.7,50.8 -1202.7,4.4 c -997.4,4.4 -1218,0 -1290.9,-26.5 z"
         id="path6"
         inkscape:connector-curvature="0" /><path
         d="M 574.5,2692.7 C 420,2633.1 254.5,2472 177.3,2308.7 117.7,2178.5 115.5,2167.5 108.9,1708.4 l -8.8,-470 h 377.4 377.4 v 375.2 375.2 h 375.2 374.9 v 375.2 375 l -456.8,-2.2 c -403.8,0 -472.2,-4.4 -573.7,-44.1 z"
         id="path8"
         inkscape:connector-curvature="0" /><path
         d="M 104.4,-74.6 V -637.3 H 479.6 854.8 V -74.6 488.1 H 479.6 104.4 Z"
         id="path10"
         inkscape:connector-curvature="0" /><path
         d="m 104.4,-1950.4 v -562.7 h 375.2 375.2 v 562.7 562.7 H 479.6 104.4 Z"
         id="path12"
         inkscape:connector-curvature="0" /><path
         d="m 104.4,-3702.6 c 0,-547.3 28.7,-653.2 229.5,-854 200.8,-200.8 306.7,-229.5 854,-229.5 H 1605 v 375.2 375.1 H 1229.8 854.7 v 375.2 375.2 H 479.6 104.4 Z"
         id="path14"
         inkscape:connector-curvature="0" /><path
         d="m 6879.3,-3660.7 v -375.2 H 6504.1 6129 v -377.3 -377.4 l 470,8.8 c 459,6.6 470,8.8 600.3,68.4 167.7,79.5 324.4,242.7 386.2,403.8 39.7,108.1 44.1,172.1 44.1,571.6 v 452.4 h -375.1 -375.2 z"
         id="path16"
         inkscape:connector-curvature="0" /><path
         d="m 2377.4,-4411 v -375.2 h 562.7 562.7 v 375.2 375.1 h -562.7 -562.7 z"
         id="path18"
         inkscape:connector-curvature="0" /><path
         d="m 4253.2,-4411 v -375.2 h 562.7 562.7 v 375.2 375.1 h -562.7 -562.7 z"
         id="path20"
         inkscape:connector-curvature="0" /></g></g><rect
     style="fill:#ffffff;fill-opacity:0;stroke:none"
     id="rect4508"
     width="1285.3763"
     height="83.894051"
     x="-976.76617"
     y="-342.30438" /></svg>